<svg xmlns="http://www.w3.org/2000/svg" xml:space="preserve" width="100" height="100" preserveAspectRatio="xMidYMid" viewBox="-26 0 35.747 35.747"><path fill="#00d8ff" d="M3.276 12.336a23.705 23.705 0 0 0-1.139-.36c.064-.262.124-.521.176-.776.863-4.186.299-7.559-1.627-8.67-1.846-1.064-4.865.046-7.915 2.7a23.67 23.67 0 0 0-.88.809 21.545 21.545 0 0 0-.587-.542c-3.196-2.838-6.4-4.033-8.323-2.92-1.844 1.068-2.39 4.238-1.614 8.206.075.383.162.774.261 1.172-.453.129-.89.266-1.31.412-3.746 1.306-6.14 3.353-6.14 5.477 0 2.193 2.57 4.393 6.472 5.727.308.105.628.205.957.3-.107.43-.2.851-.278 1.262-.74 3.899-.162 6.994 1.677 8.055 1.9 1.096 5.09-.03 8.195-2.745.245-.214.491-.442.738-.68.32.308.64.6.957.873 3.007 2.588 5.978 3.633 7.816 2.57 1.898-1.1 2.515-4.425 1.714-8.47a19.986 19.986 0 0 0-.212-.947c.224-.066.444-.134.658-.205 4.057-1.344 6.697-3.518 6.697-5.74 0-2.131-2.47-4.192-6.293-5.508zm-.88 9.813a19.96 19.96 0 0 1-.594.186C1.354 20.917.75 19.409.01 17.85a35.452 35.452 0 0 0 1.722-4.418c.362.105.714.216 1.052.332 3.275 1.128 5.273 2.795 5.273 4.079 0 1.368-2.158 3.144-5.66 4.305zm-1.453 2.88c.354 1.789.405 3.406.17 4.67-.21 1.137-.635 1.894-1.159 2.198-1.115.645-3.5-.194-6.072-2.407a21.663 21.663 0 0 1-.89-.812 35.518 35.518 0 0 0 2.966-3.766c1.711-.152 3.328-.4 4.793-.74.073.292.137.578.192.857zm-14.699 6.756c-1.09.385-1.958.396-2.482.094-1.116-.644-1.58-3.13-.948-6.464.073-.381.16-.774.259-1.174 1.45.32 3.054.55 4.769.69a36.804 36.804 0 0 0 3.038 3.753c-.226.218-.45.426-.674.621-1.373 1.2-2.75 2.052-3.962 2.48zm-5.105-9.645c-1.726-.59-3.15-1.356-4.128-2.193-.877-.751-1.32-1.498-1.32-2.103 0-1.289 1.92-2.932 5.125-4.05.389-.135.796-.263 1.218-.383a36.239 36.239 0 0 0 1.725 4.47 36.833 36.833 0 0 0-1.746 4.533 18.63 18.63 0 0 1-.874-.274zm1.711-11.648c-.665-3.399-.223-5.963.888-6.606 1.184-.686 3.802.291 6.562 2.742.176.156.353.32.53.49a36.216 36.216 0 0 0-3.014 3.73 36.95 36.95 0 0 0-4.722.734 22.18 22.18 0 0 1-.244-1.09zm15.266 3.77c-.35-.605-.71-1.196-1.076-1.77 1.129.143 2.21.332 3.227.564-.305.977-.686 2-1.133 3.047a52.69 52.69 0 0 0-1.018-1.841ZM-8.11 8.198a32.317 32.317 0 0 1 2.082 2.514 44.524 44.524 0 0 0-4.183 0 33.353 33.353 0 0 1 2.1-2.514zm-6.266 6.074c-.35.607-.683 1.218-.999 1.83a33.374 33.374 0 0 1-1.124-3.062c1.01-.226 2.086-.41 3.208-.55-.371.579-.734 1.174-1.085 1.782zm1.118 9.035a32.179 32.179 0 0 1-3.262-.525c.313-1.009.698-2.058 1.147-3.124a44.682 44.682 0 0 0 2.115 3.649zm5.19 4.29a33.937 33.937 0 0 1-2.13-2.549c.678.027 1.369.04 2.07.04.722 0 1.435-.016 2.137-.047a32.16 32.16 0 0 1-2.078 2.555zm7.215-7.993a32.072 32.072 0 0 1 1.189 3.113 32.122 32.122 0 0 1-3.301.562 52.86 52.86 0 0 0 1.086-1.8c.36-.626.703-1.252 1.026-1.875zm-2.336 1.12a49.575 49.575 0 0 1-1.697 2.739c-1.05.075-2.135.113-3.241.113a49.55 49.55 0 0 1-3.204-.1 42.498 42.498 0 0 1-3.24-5.595 42.487 42.487 0 0 1 3.221-5.585 42.522 42.522 0 0 1 6.451.001 45.531 45.531 0 0 1 1.705 2.722 49.557 49.557 0 0 1 1.526 2.84c-.46.947-.968 1.906-1.52 2.864zM-.068 3.84c1.184.683 1.645 3.44.9 7.054-.047.23-.1.465-.159.703a36.216 36.216 0 0 0-4.731-.747A35.514 35.514 0 0 0-7.05 7.117c.272-.262.543-.511.814-.746C-3.623 4.097-1.181 3.199-.07 3.84Zm-8.058 10.843a3.16 3.16 0 1 1 0 6.32 3.16 3.16 0 0 1 0-6.32z" style="stroke-width:.138242"/></svg>