<svg xmlns="http://www.w3.org/2000/svg" xml:space="preserve" width="100" height="100" preserveAspectRatio="xMidYMid" viewBox="-26 0 35.747 35.747"><path fill="#6db33f" d="M-20.336 5.277c6.934-6.718 18.022-6.538 24.74.433a14.87 14.87 0 0 0 1.878-3.287c2.204 6.718 3.54 12.353 3.034 16.723a17.453 17.453 0 0 1-4.081 10.04c-6.212 7.369-17.264 8.308-24.632 2.095l-.141-.125-.008-.005a1.6 1.6 0 0 1-.251-.22l-.02-.023-.23-.205a7.305 7.305 0 0 1-.65-.603l-.073-.083c-6.718-6.934-6.501-18.023.434-24.74Zm2.6 23.512c-.65-.505-1.59-.433-2.095.217-.444.572-.442 1.367.007 1.894l.007.008.279.248.027.019c.631.415 1.48.329 1.965-.258l.027-.033c.505-.65.397-1.59-.217-2.095zM6.102 4.23c-1.806 3.793-6.285 6.682-10.15 7.585-3.647.867-6.826.144-10.184 1.445-7.657 2.925-7.513 12.027-3.323 14.086l.253.144s3.026-.602 6.019-1.396l.256-.069c1.195-.322 2.371-.673 3.332-1.027 4.984-1.842 10.474-6.393 12.28-11.666-.94 5.49-5.67 10.799-10.402 13.219-2.528 1.3-4.479 1.59-8.632 3.034-.506.18-.903.361-.903.361l.152-.02.1-.014.101-.012c.917-.114 1.742-.17 1.742-.17 5.887-.29 15.133 1.66 19.431-4.082 4.406-5.851 1.95-15.314-.072-21.418z"/><path fill="#fff" d="M-17.736 28.79c.614.505.722 1.444.217 2.094-.506.65-1.445.722-2.095.217-.65-.506-.722-1.445-.217-2.095.506-.65 1.445-.722 2.095-.217zM6.102 4.23c2.022 6.103 4.478 15.566.072 21.417-4.298 5.743-13.544 3.792-19.431 4.081 0 0-.825.057-1.742.17l-.1.013-.253.034s.397-.18.903-.361c4.153-1.445 6.104-1.734 8.632-3.034 4.731-2.42 9.463-7.73 10.402-13.22-1.806 5.274-7.296 9.825-12.28 11.667-3.431 1.264-9.607 2.492-9.607 2.492l-.253-.144c-4.19-2.06-4.334-11.16 3.323-14.086 3.358-1.3 6.537-.578 10.185-1.445 3.864-.903 8.343-3.792 10.149-7.585Z"/></svg>