<svg xmlns="http://www.w3.org/2000/svg" xml:space="preserve" width="100" height="100" preserveAspectRatio="xMidYMid" viewBox="-26 0 35.747 35.747"><path fill="#ff3e00" d="M4.59 4.993C1.339.337-5.086-1.043-9.731 1.916l-8.159 5.2a9.36 9.36 0 0 0-4.228 6.27 9.857 9.857 0 0 0 .972 6.328 9.386 9.386 0 0 0-1.4 3.498 9.974 9.974 0 0 0 1.703 7.543c3.254 4.656 9.679 6.036 14.324 3.076l8.158-5.2a9.358 9.358 0 0 0 4.228-6.269 9.861 9.861 0 0 0-.97-6.328 9.384 9.384 0 0 0 1.399-3.498A9.972 9.972 0 0 0 4.59 4.993"/><path fill="#fff" d="M-10.53 31.198a6.482 6.482 0 0 1-6.958-2.58 6 6 0 0 1-1.025-4.537 5.69 5.69 0 0 1 .195-.762l.154-.469.418.307c.965.71 2.045 1.25 3.192 1.595l.303.093-.027.302c-.038.43.08.86.329 1.214a1.952 1.952 0 0 0 2.095.777c.177-.047.346-.122.5-.22l8.162-5.2a1.7 1.7 0 0 0 .767-1.137 1.813 1.813 0 0 0-.31-1.368 1.954 1.954 0 0 0-2.095-.778 1.797 1.797 0 0 0-.5.22l-3.115 1.986a5.955 5.955 0 0 1-1.657.728 6.482 6.482 0 0 1-6.958-2.58 5.999 5.999 0 0 1-1.025-4.537 5.628 5.628 0 0 1 2.544-3.77l8.16-5.202a5.946 5.946 0 0 1 1.659-.728A6.482 6.482 0 0 1 1.235 7.13a6 6 0 0 1 1.025 4.537 5.757 5.757 0 0 1-.195.762l-.153.469-.418-.307A10.518 10.518 0 0 0-1.7 10.997l-.303-.092.028-.303c.037-.43-.08-.86-.33-1.214a1.952 1.952 0 0 0-2.094-.777 1.797 1.797 0 0 0-.501.22l-8.162 5.201a1.696 1.696 0 0 0-.766 1.136 1.81 1.81 0 0 0 .309 1.368 1.954 1.954 0 0 0 2.095.778c.178-.048.347-.122.502-.22l3.113-1.985a5.938 5.938 0 0 1 1.657-.728A6.482 6.482 0 0 1 .807 16.96a5.999 5.999 0 0 1 1.025 4.537 5.631 5.631 0 0 1-2.544 3.771l-8.16 5.201a5.946 5.946 0 0 1-1.658.729"/></svg>