<svg xmlns="http://www.w3.org/2000/svg" xml:space="preserve" width="100" height="100" preserveAspectRatio="xMidYMid" viewBox="-26 0 35.747 35.747"><path d="M-2.942 1.235c.286.355.432.835.724 1.793l6.375 20.943a26.53 26.53 0 0 0-7.622-2.58L-7.616 7.363a.54.54 0 0 0-1.037.002l-4.1 14.019a26.529 26.529 0 0 0-7.656 2.584l6.406-20.944c.293-.957.44-1.436.725-1.79a2.355 2.355 0 0 1 .955-.707c.423-.17.923-.17 1.924-.17h4.576c1.002 0 1.503 0 1.926.17a2.355 2.355 0 0 1 .955.708z"/><path fill="#ff5d01" d="M-2.18 24.968c-1.05.898-3.148 1.511-5.564 1.511-2.966 0-5.452-.923-6.111-2.165-.236.712-.289 1.526-.289 2.047 0 0-.155 2.554 1.622 4.331 0-.922.748-1.67 1.67-1.67 1.582 0 1.58 1.38 1.579 2.499v.1a4.081 4.081 0 0 0 2.515 3.769 3.424 3.424 0 0 1-.345-1.502c0-1.62.952-2.223 2.057-2.924.88-.558 1.857-1.178 2.53-2.422a4.567 4.567 0 0 0 .552-2.181c0-.486-.076-.954-.215-1.393z"/></svg>