<svg xmlns="http://www.w3.org/2000/svg" width="96" height="96" baseProfile="basic" viewBox="0 0 48 48"><path d="M42.164 24 44 22.03l-2.185-1.574 1.416-2.29-2.45-1.117.942-2.522-2.621-.618.432-2.658-2.691-.095-.095-2.691-2.658.432-.618-2.621-2.522.942-1.117-2.45-2.29 1.416L25.97 4 24 5.836 22.03 4l-1.574 2.185-2.29-1.416-1.117 2.45-2.522-.942-.618 2.621-2.658-.432-.095 2.691-2.691.095.432 2.658-2.621.618.942 2.522-2.45 1.117 1.416 2.29L4 22.03 5.836 24 4 25.97l2.185 1.574-1.416 2.29 2.45 1.117-.942 2.522 2.621.618-.432 2.658 2.691.095.095 2.691 2.658-.432.618 2.621 2.522-.942 1.117 2.45 2.29-1.416L22.03 44 24 42.164 25.97 44l1.574-2.185 2.29 1.416 1.117-2.45 2.522.942.618-2.621 2.658.432.095-2.691 2.691-.095-.432-2.658 2.621-.618-.942-2.522 2.45-1.117-1.416-2.29L44 25.97 42.164 24zM24 7a1 1 0 1 1 0 2 1 1 0 0 1 0-2zM9 18a1 1 0 1 1 0 2 1 1 0 0 1 0-2zm-.192 11A15.96 15.96 0 0 1 8 24c0-.704.061-1.392.149-2.072l2.707-1.45c.55-.294.824-.895.738-1.478H13v10H8.808zM15 38a1 1 0 1 1 0-2 1 1 0 0 1 0 2zm18 0a1 1 0 1 1 0-2 1 1 0 0 1 0 2zm2.444-2.829-3.112-.497a1.437 1.437 0 0 0-1.646 1.193l-.459 2.877A15.974 15.974 0 0 1 24 40c-2.256 0-4.4-.472-6.346-1.314l-.43-2.692a1.437 1.437 0 0 0-1.646-1.193l-2.932.468a16.004 16.004 0 0 1-1.873-2.27h13.178v-4H20v-3h2.872c5.474 0 .987 7 8.247 7h6.108a16.045 16.045 0 0 1-1.783 2.172zM20.238 22v-3h5.198c.82 0 1.485.665 1.485 1.485v.03c0 .82-.665 1.485-1.485 1.485h-5.198zm19.689 3.436h-2.611v1.232c0 1.37-.854 2.332-1.844 2.332-2.547 0-1.855-3.537-4.953-5.08 2.312-.381 4.084-2.43 4.084-4.92 0-2.761-2.172-5-4.851-5H11.52a15.986 15.986 0 0 1 9.166-5.652l2.297 2.297a1.437 1.437 0 0 0 2.032 0l2.297-2.297c4.64.978 8.54 3.962 10.744 8.007l-1.167 2.178c-.375.7-.111 1.571.588 1.945l2.342 1.254c.108.743.181 1.496.181 2.268 0 .485-.03.962-.073 1.436zM39 20a1 1 0 1 1 0-2 1 1 0 0 1 0 2z"/></svg>