<svg xmlns="http://www.w3.org/2000/svg" xml:space="preserve" width="100" height="100" preserveAspectRatio="xMidYMid" viewBox="-26 0 35.747 35.747"><path d="m7.782 17.874 1.608-1.726-1.914-1.378 1.24-2.006-2.145-.978.825-2.209L5.1 9.036l.379-2.328-2.357-.083-.083-2.357-2.328.378-.542-2.295-2.208.825-.979-2.146-2.005 1.24L-6.401.357l-1.725 1.608L-9.852.357l-1.378 1.914-2.006-1.24-.978 2.146-2.209-.825-.541 2.295-2.328-.378-.083 2.357-2.357.083.378 2.328-2.295.541.825 2.209-2.146.978 1.24 2.006-1.913 1.377 1.608 1.726-1.608 1.725 1.914 1.379-1.24 2.005 2.146.978-.825 2.21 2.295.54-.378 2.328 2.357.084.083 2.356 2.328-.378.541 2.296 2.209-.825.978 2.145 2.006-1.24 1.377 1.913 1.726-1.608 1.725 1.608 1.379-1.914 2.005 1.24.978-2.145 2.21.825.54-2.296 2.328.379.084-2.357 2.356-.083-.378-2.328 2.296-.542-.825-2.208 2.145-.979-1.24-2.005 1.913-1.378zM-8.126 2.984a.876.876 0 1 1 0 1.753.876.876 0 0 1 0-1.752zm-13.137 9.635a.876.876 0 1 1 0 1.751.876.876 0 0 1 0-1.751zm-.169 9.634a13.978 13.978 0 0 1-.707-4.38c0-.616.053-1.218.13-1.814l2.371-1.27c.482-.257.722-.784.646-1.294h1.232v8.758zm5.423 7.882a.876.876 0 1 1 0-1.752.876.876 0 0 1 0 1.752zm15.765 0a.876.876 0 1 1 0-1.752.876.876 0 0 1 0 1.752zm2.14-2.478-2.725-.435a1.259 1.259 0 0 0-1.442 1.045l-.402 2.52a13.99 13.99 0 0 1-5.453 1.1 13.96 13.96 0 0 1-5.558-1.151l-.377-2.358a1.259 1.259 0 0 0-1.441-1.045l-2.568.41a14.017 14.017 0 0 1-1.64-1.988h11.54v-3.503h-3.46v-2.628h2.516c4.794 0 .864 6.131 7.223 6.131h5.35a14.052 14.052 0 0 1-1.562 1.902zM-11.42 16.122v-2.627h4.552a1.3 1.3 0 0 1 1.301 1.3v.027a1.3 1.3 0 0 1-1.3 1.3zm17.244 3.01H3.536v1.078c0 1.2-.748 2.043-1.615 2.043-2.23 0-1.625-3.098-4.338-4.45 2.025-.333 3.577-2.128 3.577-4.308 0-2.418-1.902-4.38-4.249-4.38h-15.967a14 14 0 0 1 8.027-4.95l2.012 2.012a1.259 1.259 0 0 0 1.78 0l2.011-2.011c4.064.856 7.48 3.47 9.41 7.012l-1.022 1.908a1.258 1.258 0 0 0 .515 1.703l2.051 1.098c.095.651.159 1.31.159 1.987 0 .424-.027.842-.064 1.257zM5.01 14.37a.876.876 0 1 1 0-1.751.876.876 0 0 1 0 1.751z" style="stroke-width:.875813"/></svg>