<svg xmlns="http://www.w3.org/2000/svg" xml:space="preserve" width="100" height="100" preserveAspectRatio="xMidYMid" viewBox="-26 0 35.747 35.747"><g fill-rule="evenodd" style="clip-rule:evenodd"><path fill="#283593" d="M-9.041.596a1.874 1.874 0 0 1 1.829 0l14.019 7.87a1.768 1.768 0 0 1 .915 1.539v15.737a1.77 1.77 0 0 1-.915 1.54l-14.02 7.87a1.874 1.874 0 0 1-1.828 0l-14.02-7.87a1.77 1.77 0 0 1-.913-1.54V10.007c0-.636.348-1.223.915-1.54Z"/><path fill="#5c6bc0" d="M-23.72 26.552c-.223-.297-.254-.579-.254-.958V9.947c0-.633.347-1.217.912-1.532L-9.092.591c.564-.316 1.33-.31 1.894.007C-4.41 2.159 3.955 6.82 6.743 8.38c.226.127.397.28.55.48z"/><path fill="#fff" d="M-8.126 6.196c6.445 0 11.677 5.233 11.677 11.678 0 6.445-5.232 11.677-11.677 11.677-6.445 0-11.678-5.232-11.678-11.677 0-6.445 5.233-11.678 11.678-11.678zm0 5.84a5.841 5.841 0 0 1 5.838 5.838 5.842 5.842 0 0 1-5.838 5.839 5.842 5.842 0 0 1-5.84-5.839 5.84 5.84 0 0 1 5.84-5.839z"/><path fill="#3949ab" d="M7.292 8.87c.43.403.422 1.01.422 1.488 0 3.165-.026 12.169.008 15.334.003.33-.106.678-.27.94l-15.918-8.758Z"/></g></svg>