<svg xmlns="http://www.w3.org/2000/svg" xml:space="preserve" width="100" height="100" preserveAspectRatio="xMidYMid" viewBox="-26 0 35.747 35.747"><path fill="#f7df1e" d="M-25.643.357H9.39V35.39h-35.033Z"/><path d="m-16.431 29.633 2.68-1.622c.518.917.988 1.693 2.117 1.693 1.082 0 1.764-.424 1.764-2.07V16.441h3.292v11.24c0 3.41-1.999 4.962-4.915 4.962-2.634 0-4.162-1.364-4.938-3.01M-4.79 29.28l2.68-1.552c.706 1.153 1.624 2 3.246 2 1.364 0 2.234-.683 2.234-1.623 0-1.13-.894-1.529-2.399-2.187l-.822-.353c-2.376-1.011-3.951-2.281-3.951-4.962 0-2.47 1.88-4.35 4.82-4.35 2.093 0 3.598.729 4.68 2.633l-2.563 1.646c-.565-1.01-1.176-1.41-2.116-1.41-.965 0-1.576.611-1.576 1.41 0 .988.611 1.388 2.022 2l.823.352c2.799 1.2 4.374 2.422 4.374 5.174 0 2.963-2.328 4.585-5.455 4.585-3.057 0-5.033-1.458-5.997-3.363"/></svg>