<svg xmlns="http://www.w3.org/2000/svg" xml:space="preserve" width="100" height="100" preserveAspectRatio="xMidYMid" viewBox="-26 0 35.747 35.747"><path fill="#007acc" d="M9.39.357h-35.033V35.39H9.39V17.874z"/><path fill="#fff" d="m-17.896 17.99-.01 1.435h4.56V32.38h3.224V19.425h4.56v-1.407c0-.779-.017-1.43-.039-1.446-.016-.022-2.791-.033-6.156-.028l-6.122.017zM2.625 16.52a4.36 4.36 0 0 1 2.191 1.262c.323.345.8.973.84 1.124.01.044-1.513 1.067-2.436 1.64-.033.022-.167-.122-.317-.345-.45-.656-.923-.94-1.646-.99-1.062-.072-1.746.484-1.74 1.413 0 .272.039.434.15.656.233.484.667.773 2.03 1.362 2.507 1.08 3.58 1.791 4.248 2.803.745 1.129.912 2.93.406 4.27-.556 1.458-1.935 2.447-3.876 2.775-.6.106-2.024.09-2.67-.027-1.406-.25-2.74-.946-3.563-1.858-.323-.356-.951-1.284-.912-1.35.016-.023.16-.112.322-.207.156-.089.745-.428 1.301-.75l1.007-.584.211.311c.295.45.94 1.068 1.33 1.274 1.117.589 2.652.506 3.408-.173.322-.294.456-.6.456-1.05 0-.407-.05-.585-.262-.89-.272-.39-.828-.718-2.407-1.402-1.808-.778-2.586-1.262-3.298-2.03-.411-.444-.8-1.156-.962-1.751-.133-.495-.167-1.735-.061-2.235.373-1.747 1.69-2.964 3.592-3.326.617-.117 2.052-.072 2.658.078z"/></svg>