<svg xmlns="http://www.w3.org/2000/svg" xml:space="preserve" width="100" height="100" preserveAspectRatio="xMidYMid" viewBox="-26 0 35.747 35.747"><g style="fill:none"><path fill="#e76f00" d="M-8.072 9.598c7.213-5.6 3.51-9.24 3.51-9.24.552 5.788-5.959 7.155-7.704 11.132-1.19 2.715.816 5.091 4.192 8.087-.299-.664-.76-1.309-1.225-1.961-1.59-2.226-3.245-4.545 1.227-8.018z"/><path fill="#e76f00" d="M-6.92 20.804s2.17-1.75.451-3.696c-5.825-6.6 6.371-9.595 6.371-9.595-7.446 3.587-6.335 5.716-4.463 8.303 2.004 2.773-2.36 4.988-2.36 4.988z"/><path fill="#5382a1" d="M-.532 26.025c6.684-3.416 3.594-6.698 1.437-6.255-.53.108-.765.202-.765.202s.196-.303.571-.434c4.268-1.475 7.55 4.351-1.377 6.659 0 0 .103-.09.134-.172zM-14.44 21.702c-4.182-.55 2.293-2.061 2.293-2.061s-2.514-.167-5.607 1.303c-3.656 1.74 9.045 2.53 15.62.83.684-.46 1.629-.857 1.629-.857s-2.69.472-5.37.695c-3.279.27-6.799.323-8.565.09zM-12.849 24.963c-2.332-.237-.805-1.348-.805-1.348-6.034 1.969 3.358 4.202 11.79 1.778-.897-.31-1.467-.88-1.467-.88-4.12.781-6.502.756-9.518.45zM-11.833 28.492c-2.33-.263-.968-1.042-.968-1.042-5.478 1.505 3.331 4.615 10.305 1.675-1.142-.436-1.96-.94-1.96-.94-3.11.578-4.554.624-7.377.307z"/><path fill="#5382a1" d="M2.754 30.287s1.008.816-1.11 1.448c-4.025 1.199-16.754 1.561-20.29.048-1.271-.544 1.113-1.299 1.862-1.457.782-.167 1.23-.136 1.23-.136-1.414-.98-9.138 1.923-3.924 2.754 14.22 2.268 25.92-1.021 22.232-2.657Z"/><path fill="#5382a1" d="M5.01 32.07c-.232 2.986-10.084 3.614-16.5 3.21-4.185-.264-5.024-.924-5.037-.933 4.006.65 10.76.767 16.236-.246 4.853-.899 5.302-2.03 5.302-2.03Z"/></g></svg>