<svg xmlns="http://www.w3.org/2000/svg" xml:space="preserve" width="100" height="100" preserveAspectRatio="xMidYMid" viewBox="-26 0 35.747 35.747"><path d="M-8.126.628c-9.674 0-17.517 7.842-17.517 17.516 0 8.208 5.652 15.075 13.272 16.976a2.556 2.556 0 0 1-.134-.851v-2.994h-2.202c-1.198 0-2.264-.515-2.78-1.473-.574-1.064-.673-2.691-2.095-3.687-.422-.331-.1-.71.385-.658.898.254 1.643.87 2.343 1.784.698.915 1.026 1.122 2.33 1.122.632 0 1.578-.036 2.468-.177.479-1.216 1.307-2.335 2.318-2.863-5.833-.6-8.616-3.502-8.616-7.442 0-1.696.722-3.337 1.95-4.72-.403-1.371-.91-4.17.155-5.235 2.624 0 4.21 1.702 4.592 2.162a13.127 13.127 0 0 1 4.253-.702c1.513 0 2.955.254 4.265.705.377-.457 1.965-2.165 4.596-2.165 1.068 1.067.556 3.877.148 5.246 1.22 1.38 1.939 3.016 1.939 4.709 0 3.937-2.78 6.837-8.603 7.44 1.602.836 2.771 3.187 2.771 4.957v3.99c0 .153-.033.262-.05.392C4.486 32.268 9.39 25.787 9.39 18.144 9.39 8.47 1.547.628-8.126.628Z" style="stroke-width:1.45969"/></svg>